<?xml version="1.0" encoding="UTF-8"?>
<svg version="1.1" xmlns="http://www.w3.org/2000/svg" width="400" height="400">
<path d="M0 0 C0.69451767 -0.0065712 1.38903534 -0.0131424 2.104599 -0.01991272 C4.40721745 -0.03965262 6.70977066 -0.05131001 9.01245117 -0.0612793 C9.79872076 -0.06535482 10.58499035 -0.06943035 11.39508629 -0.07362938 C15.55700799 -0.09449346 19.71889668 -0.10879347 23.88085938 -0.11816406 C28.17846811 -0.12922703 32.47555885 -0.16362416 36.7729845 -0.20333576 C40.07843484 -0.22948956 43.38376155 -0.23785479 46.68930626 -0.24144554 C48.27333765 -0.24631504 49.85736339 -0.25793948 51.44129372 -0.27648354 C53.66049778 -0.30084924 55.8783592 -0.29991548 58.09765625 -0.29296875 C59.99056145 -0.30176811 59.99056145 -0.30176811 61.92170715 -0.31074524 C66.0420421 0.29435956 67.42878947 1.10660774 70.24291992 4.17700195 C70.99041017 7.23454348 70.91320729 10.23434933 70.87110901 13.36901855 C70.8782034 14.30979264 70.88529778 15.25056672 70.89260715 16.21984911 C70.91024734 19.38110914 70.89205028 22.54114936 70.87402344 25.70239258 C70.87916049 27.96607525 70.88644014 30.22975393 70.89570618 32.49342346 C70.9142723 38.65357357 70.90124166 44.81329256 70.88161588 50.97342491 C70.86523919 57.43032719 70.87404241 63.88720191 70.87913513 70.34411621 C70.88366236 81.20564668 70.86786498 92.06697849 70.83984375 102.9284668 C70.81111227 114.06558406 70.80387055 125.20245552 70.81933594 136.33959961 C70.83798185 149.78539662 70.83608023 163.23099616 70.81712151 176.67680359 C70.81028868 181.79590408 70.81124494 186.91491276 70.81866646 192.03401184 C70.8264016 198.08830574 70.81396991 204.14225083 70.78681755 210.19648552 C70.78000284 212.40373132 70.77976013 214.61101013 70.78703308 216.81825447 C70.86888254 244.92619104 65.52037146 271.54422269 46.24291992 293.17700195 C45.57776367 293.93625977 44.91260742 294.69551758 44.22729492 295.4777832 C26.26006921 314.74264188 -0.76368051 323.50445855 -26.50317383 324.5012207 C-40.06492307 324.81354631 -52.79536822 324.33169878 -65.75708008 320.17700195 C-66.53341797 319.93030762 -67.30975586 319.68361328 -68.10961914 319.42944336 C-82.73904277 314.65362551 -107.62026685 306.17390451 -115.75708008 292.17700195 C-115.84336414 285.6393253 -113.77072993 281.87230199 -109.94458008 276.73950195 C-109.45465576 276.05557373 -108.96473145 275.37164551 -108.45996094 274.66699219 C-107.42480411 273.22322515 -106.38341765 271.78390645 -105.33618164 270.34887695 C-103.29239337 267.53787812 -101.2968507 264.69444635 -99.30126953 261.84912109 C-97.81538767 259.73353283 -96.32029402 257.62471426 -94.82348633 255.5168457 C-92.68606678 252.50186492 -90.57255029 249.47163176 -88.47192383 246.4309082 C-87.66452759 245.26869751 -87.66452759 245.26869751 -86.84082031 244.08300781 C-85.81049523 242.59906651 -84.7849957 241.11175913 -83.76513672 239.62060547 C-79.03043233 232.8262679 -79.03043233 232.8262679 -75.75708008 231.17700195 C-70.11891024 230.25453693 -66.68532665 232.58163311 -62.06958008 235.42700195 C-51.11279436 241.83191072 -40.5961925 246.84834349 -27.55395508 243.6340332 C-21.79549252 241.36820337 -18.08657091 238.31453052 -15.50708008 232.73950195 C-12.92087601 226.64496367 -12.61055782 220.93973518 -12.61904907 214.37121582 C-12.61481715 213.04090308 -12.61481715 213.04090308 -12.61049974 211.68371534 C-12.60216692 208.71206764 -12.60081663 205.74045726 -12.59936523 202.76879883 C-12.59469618 200.638269 -12.58955246 198.50774016 -12.58396912 196.37721252 C-12.57269469 191.78936354 -12.56425747 187.20152103 -12.55784988 182.61366272 C-12.54716982 175.3615985 -12.52692625 168.10958093 -12.50473022 160.85754395 C-12.44280188 140.23569874 -12.3887517 119.61385659 -12.35571289 98.99194336 C-12.33738579 87.60266491 -12.30847711 76.21346486 -12.26770818 64.82424402 C-12.24661237 58.7962564 -12.23117719 52.76836768 -12.22890091 46.74034119 C-12.22675839 41.07353337 -12.21092952 35.40693175 -12.18451118 29.74018669 C-12.1773026 27.65887017 -12.17522474 25.57752871 -12.17861366 23.49620247 C-12.18249714 20.65815209 -12.16809024 17.82076391 -12.14907837 14.98278809 C-12.15460806 14.15642711 -12.16013776 13.33006614 -12.16583502 12.47866392 C-12.11274402 7.89756942 -11.72074451 4.90290168 -8.75708008 1.17700195 C-5.839664 -0.28170608 -3.25835101 0.02546615 0 0 Z " fill="#000000" transform="translate(152.757080078125,37.822998046875)"/>
<path d="M0 0 C0.90562683 -0.00571014 1.81125366 -0.01142029 2.74432373 -0.01730347 C4.23118179 -0.01898026 4.23118179 -0.01898026 5.74807739 -0.02069092 C6.79386963 -0.02565582 7.83966187 -0.03062073 8.91714478 -0.03573608 C12.3830938 -0.05036329 15.84899708 -0.05716032 19.31497192 -0.06268311 C21.72009279 -0.06843367 24.12521364 -0.07419141 26.53033447 -0.07995605 C31.57589939 -0.09046734 36.62144837 -0.09630932 41.66702271 -0.09979248 C48.13584376 -0.10528039 54.60445467 -0.12931442 61.07320976 -0.15776443 C66.04199848 -0.17637622 71.0107364 -0.18159562 75.97955704 -0.18312836 C78.36460648 -0.18615822 80.74965496 -0.1941979 83.13467026 -0.20731354 C86.469511 -0.22434471 89.80383595 -0.22250083 93.13870239 -0.21600342 C94.12589264 -0.2252182 95.11308289 -0.23443298 96.13018799 -0.243927 C101.06064583 -0.21379479 104.62043051 -0.17542134 108.57278442 3.14044189 C109.9433118 5.88149664 109.72275694 8.09499467 109.74978638 11.16314697 C109.76903923 13.06070488 109.76903923 13.06070488 109.78868103 14.99659729 C109.79684865 16.38438527 109.80429234 17.77217766 109.81106567 19.15997314 C109.8151412 19.85798223 109.81921673 20.55599133 109.82341576 21.27515221 C109.84427664 24.970236 109.85857776 28.66528265 109.86795044 32.3604126 C109.87901014 36.17377795 109.91340395 39.98655899 109.95312214 43.7997179 C109.97929133 46.73458426 109.98764252 49.66931152 109.99123192 52.60428429 C109.99609782 54.00969065 110.00771213 55.41509081 110.02626991 56.82038307 C110.05066093 58.7899631 110.04727658 60.75982736 110.04275513 62.72955322 C110.04862137 63.84937088 110.05448761 64.96918854 110.06053162 66.12294006 C109.41775029 70.0995777 108.72632169 71.58215054 105.57278442 74.14044189 C102.01958023 74.88659375 98.52044364 74.8230986 94.90090942 74.78741455 C93.27107117 74.80055695 93.27107117 74.80055695 91.60830688 74.81396484 C88.01272784 74.83599114 84.41837621 74.82139332 80.82278442 74.80450439 C78.32701379 74.80787156 75.83124475 74.81272335 73.33547974 74.81900024 C68.10325571 74.82637597 62.87135158 74.81611883 57.63919067 74.79229736 C51.59271071 74.76508604 45.54707371 74.77390051 39.50061417 74.80142939 C33.6806195 74.82686513 27.86094491 74.82415819 22.04092407 74.80952072 C19.56574384 74.80618133 17.09054214 74.81029239 14.61538696 74.82191849 C11.15789511 74.83459402 7.70202987 74.81529347 4.24465942 74.78741455 C2.70473328 74.80259628 2.70473328 74.80259628 1.13369751 74.81808472 C-5.71951846 74.71552237 -5.71951846 74.71552237 -9.06285095 71.998703 C-10.65118112 68.67124766 -10.92837509 66.44429215 -10.92892456 62.7612915 C-10.93830551 61.4932518 -10.94768646 60.2252121 -10.95735168 58.91874695 C-10.94687414 57.54341961 -10.93550522 56.16809882 -10.92330933 54.79278564 C-10.9234644 53.37461778 -10.92495473 51.95644948 -10.92771912 50.5382843 C-10.9291011 47.57173845 -10.91657804 44.60567727 -10.89376831 41.63922119 C-10.86535759 37.84043226 -10.86813035 34.04244661 -10.88085842 30.24359798 C-10.88781869 27.31729797 -10.88002292 24.39118307 -10.86760139 21.46490669 C-10.86309206 20.06430331 -10.86274558 18.66368003 -10.86666679 17.26307487 C-10.86958273 15.30541578 -10.85089857 13.3477606 -10.83126831 11.39019775 C-10.82316383 9.72071327 -10.82316383 9.72071327 -10.81489563 8.01750183 C-10.38081363 4.79608274 -9.70285378 3.42928226 -7.42721558 1.14044189 C-4.61899473 0.20436828 -2.90505145 0.010978 0 0 Z " fill="#000000" transform="translate(254.42721557617188,213.85955810546875)"/>
<path d="M0 0 C0.90562683 -0.00571014 1.81125366 -0.01142029 2.74432373 -0.01730347 C4.23118179 -0.01898026 4.23118179 -0.01898026 5.74807739 -0.02069092 C6.79386963 -0.02565582 7.83966187 -0.03062073 8.91714478 -0.03573608 C12.3830938 -0.05036329 15.84899708 -0.05716032 19.31497192 -0.06268311 C21.72009279 -0.06843367 24.12521364 -0.07419141 26.53033447 -0.07995605 C31.57589939 -0.09046734 36.62144837 -0.09630932 41.66702271 -0.09979248 C48.13584376 -0.10528039 54.60445467 -0.12931442 61.07320976 -0.15776443 C66.04199848 -0.17637622 71.0107364 -0.18159562 75.97955704 -0.18312836 C78.36460648 -0.18615822 80.74965496 -0.1941979 83.13467026 -0.20731354 C86.469511 -0.22434471 89.80383595 -0.22250083 93.13870239 -0.21600342 C94.12589264 -0.2252182 95.11308289 -0.23443298 96.13018799 -0.243927 C101.06064583 -0.21379479 104.62043051 -0.17542134 108.57278442 3.14044189 C109.9433118 5.88149664 109.72275694 8.09499467 109.74978638 11.16314697 C109.76903923 13.06070488 109.76903923 13.06070488 109.78868103 14.99659729 C109.79684865 16.38438527 109.80429234 17.77217766 109.81106567 19.15997314 C109.8151412 19.85798223 109.81921673 20.55599133 109.82341576 21.27515221 C109.84427664 24.970236 109.85857776 28.66528265 109.86795044 32.3604126 C109.87901014 36.17377795 109.91340395 39.98655899 109.95312214 43.7997179 C109.97929133 46.73458426 109.98764252 49.66931152 109.99123192 52.60428429 C109.99609782 54.00969065 110.00771213 55.41509081 110.02626991 56.82038307 C110.05066093 58.7899631 110.04727658 60.75982736 110.04275513 62.72955322 C110.04862137 63.84937088 110.05448761 64.96918854 110.06053162 66.12294006 C109.41775029 70.0995777 108.72632169 71.58215054 105.57278442 74.14044189 C102.01958023 74.88659375 98.52044364 74.8230986 94.90090942 74.78741455 C93.27107117 74.80055695 93.27107117 74.80055695 91.60830688 74.81396484 C88.01272784 74.83599114 84.41837621 74.82139332 80.82278442 74.80450439 C78.32701379 74.80787156 75.83124475 74.81272335 73.33547974 74.81900024 C68.10325571 74.82637597 62.87135158 74.81611883 57.63919067 74.79229736 C51.59271071 74.76508604 45.54707371 74.77390051 39.50061417 74.80142939 C33.6806195 74.82686513 27.86094491 74.82415819 22.04092407 74.80952072 C19.56574384 74.80618133 17.09054214 74.81029239 14.61538696 74.82191849 C11.15789511 74.83459402 7.70202987 74.81529347 4.24465942 74.78741455 C2.70473328 74.80259628 2.70473328 74.80259628 1.13369751 74.81808472 C-5.71951846 74.71552237 -5.71951846 74.71552237 -9.06285095 71.998703 C-10.65118112 68.67124766 -10.92837509 66.44429215 -10.92892456 62.7612915 C-10.93830551 61.4932518 -10.94768646 60.2252121 -10.95735168 58.91874695 C-10.94687414 57.54341961 -10.93550522 56.16809882 -10.92330933 54.79278564 C-10.9234644 53.37461778 -10.92495473 51.95644948 -10.92771912 50.5382843 C-10.9291011 47.57173845 -10.91657804 44.60567727 -10.89376831 41.63922119 C-10.86535759 37.84043226 -10.86813035 34.04244661 -10.88085842 30.24359798 C-10.88781869 27.31729797 -10.88002292 24.39118307 -10.86760139 21.46490669 C-10.86309206 20.06430331 -10.86274558 18.66368003 -10.86666679 17.26307487 C-10.86958273 15.30541578 -10.85089857 13.3477606 -10.83126831 11.39019775 C-10.82316383 9.72071327 -10.82316383 9.72071327 -10.81489563 8.01750183 C-10.38081363 4.79608274 -9.70285378 3.42928226 -7.42721558 1.14044189 C-4.61899473 0.20436828 -2.90505145 0.010978 0 0 Z " fill="#000000" transform="translate(254.42721557617188,125.85955810546875)"/>
<path d="M0 0 C0.90562683 -0.00571014 1.81125366 -0.01142029 2.74432373 -0.01730347 C4.23118179 -0.01898026 4.23118179 -0.01898026 5.74807739 -0.02069092 C6.79386963 -0.02565582 7.83966187 -0.03062073 8.91714478 -0.03573608 C12.3830938 -0.05036329 15.84899708 -0.05716032 19.31497192 -0.06268311 C21.72009279 -0.06843367 24.12521364 -0.07419141 26.53033447 -0.07995605 C31.57589939 -0.09046734 36.62144837 -0.09630932 41.66702271 -0.09979248 C48.13584376 -0.10528039 54.60445467 -0.12931442 61.07320976 -0.15776443 C66.04199848 -0.17637622 71.0107364 -0.18159562 75.97955704 -0.18312836 C78.36460648 -0.18615822 80.74965496 -0.1941979 83.13467026 -0.20731354 C86.469511 -0.22434471 89.80383595 -0.22250083 93.13870239 -0.21600342 C94.12589264 -0.2252182 95.11308289 -0.23443298 96.13018799 -0.243927 C101.06064583 -0.21379479 104.62043051 -0.17542134 108.57278442 3.14044189 C109.9433118 5.88149664 109.72275694 8.09499467 109.74978638 11.16314697 C109.76903923 13.06070488 109.76903923 13.06070488 109.78868103 14.99659729 C109.79684865 16.38438527 109.80429234 17.77217766 109.81106567 19.15997314 C109.8151412 19.85798223 109.81921673 20.55599133 109.82341576 21.27515221 C109.84427664 24.970236 109.85857776 28.66528265 109.86795044 32.3604126 C109.87901014 36.17377795 109.91340395 39.98655899 109.95312214 43.7997179 C109.97929133 46.73458426 109.98764252 49.66931152 109.99123192 52.60428429 C109.99609782 54.00969065 110.00771213 55.41509081 110.02626991 56.82038307 C110.05066093 58.7899631 110.04727658 60.75982736 110.04275513 62.72955322 C110.04862137 63.84937088 110.05448761 64.96918854 110.06053162 66.12294006 C109.41775029 70.0995777 108.72632169 71.58215054 105.57278442 74.14044189 C102.01958023 74.88659375 98.52044364 74.8230986 94.90090942 74.78741455 C93.27107117 74.80055695 93.27107117 74.80055695 91.60830688 74.81396484 C88.01272784 74.83599114 84.41837621 74.82139332 80.82278442 74.80450439 C78.32701379 74.80787156 75.83124475 74.81272335 73.33547974 74.81900024 C68.10325571 74.82637597 62.87135158 74.81611883 57.63919067 74.79229736 C51.59271071 74.76508604 45.54707371 74.77390051 39.50061417 74.80142939 C33.6806195 74.82686513 27.86094491 74.82415819 22.04092407 74.80952072 C19.56574384 74.80618133 17.09054214 74.81029239 14.61538696 74.82191849 C11.15789511 74.83459402 7.70202987 74.81529347 4.24465942 74.78741455 C2.70473328 74.80259628 2.70473328 74.80259628 1.13369751 74.81808472 C-5.71951846 74.71552237 -5.71951846 74.71552237 -9.06285095 71.998703 C-10.65118112 68.67124766 -10.92837509 66.44429215 -10.92892456 62.7612915 C-10.93830551 61.4932518 -10.94768646 60.2252121 -10.95735168 58.91874695 C-10.94687414 57.54341961 -10.93550522 56.16809882 -10.92330933 54.79278564 C-10.9234644 53.37461778 -10.92495473 51.95644948 -10.92771912 50.5382843 C-10.9291011 47.57173845 -10.91657804 44.60567727 -10.89376831 41.63922119 C-10.86535759 37.84043226 -10.86813035 34.04244661 -10.88085842 30.24359798 C-10.88781869 27.31729797 -10.88002292 24.39118307 -10.86760139 21.46490669 C-10.86309206 20.06430331 -10.86274558 18.66368003 -10.86666679 17.26307487 C-10.86958273 15.30541578 -10.85089857 13.3477606 -10.83126831 11.39019775 C-10.82316383 9.72071327 -10.82316383 9.72071327 -10.81489563 8.01750183 C-10.38081363 4.79608274 -9.70285378 3.42928226 -7.42721558 1.14044189 C-4.61899473 0.20436828 -2.90505145 0.010978 0 0 Z " fill="#000000" transform="translate(254.42721557617188,37.85955810546875)"/>
</svg>
