<?xml version="1.0" encoding="UTF-8"?>
<svg version="1.1" xmlns="http://www.w3.org/2000/svg" width="400" height="400">
<path d="M0 0 C0.64820206 -0.00335861 1.29640411 -0.00671722 1.96424866 -0.01017761 C4.08580495 -0.0195981 6.20728157 -0.02162624 8.32885742 -0.02270508 C9.81947358 -0.02592398 11.31008944 -0.02928851 12.80070496 -0.03279114 C15.91825085 -0.03876027 19.03576911 -0.04063334 22.15332031 -0.04003906 C26.12392097 -0.0399376 30.09434218 -0.05358352 34.0649004 -0.07081127 C37.14235732 -0.08199739 40.21977177 -0.08395625 43.29724693 -0.08342934 C44.7598908 -0.08459975 46.22253611 -0.088968 47.68515968 -0.0967617 C68.57640046 -0.19766082 68.57640046 -0.19766082 74.62182617 4.52026367 C76.72858289 6.73235823 78.07242797 8.31188851 79.12182617 11.14526367 C79.53432617 10.21713867 79.94682617 9.28901367 80.37182617 8.33276367 C82.43612452 4.57279167 84.22641366 2.76519222 88.32666016 1.4241333 C99.20172027 -0.45440205 110.18601441 -0.14378568 121.18432617 -0.12036133 C123.4252934 -0.12171111 125.66626033 -0.12365425 127.90722656 -0.12615967 C132.58718677 -0.12909618 137.26707025 -0.12486086 141.94702148 -0.11547852 C147.91825978 -0.10408496 153.88931822 -0.11065235 159.86054993 -0.12262344 C164.48304578 -0.12988192 169.10549964 -0.12753586 173.72799683 -0.12236786 C175.92861961 -0.12104238 178.12924631 -0.12264006 180.3298645 -0.12732697 C208.12387975 -0.17354525 208.12387975 -0.17354525 215.24682617 3.95776367 C221.6186219 11.39152536 220.28158898 22.42221782 220.28979492 31.60229492 C220.29312332 32.90043625 220.29645172 34.19857758 220.29988098 35.53605652 C220.30584561 38.27697583 220.30772366 41.01786373 220.30712891 43.75878906 C220.30702748 47.24512678 220.32067148 50.73125996 220.33790112 54.21754932 C220.35179393 57.574967 220.35111242 60.93234896 220.35229492 64.28979492 C220.3630732 66.14807671 220.3630732 66.14807671 220.37406921 68.04389954 C220.35590198 74.99927315 219.79879944 81.39292758 218.12182617 88.14526367 C217.0680843 92.79929029 217.22242585 94.81885183 219.12182617 99.14526367 C220.46578041 105.91309604 220.2836478 112.72544279 220.28979492 119.60229492 C220.29312332 120.90043625 220.29645172 122.19857758 220.29988098 123.53605652 C220.30584561 126.27697583 220.30772366 129.01786373 220.30712891 131.75878906 C220.30702748 135.24512678 220.32067148 138.73125996 220.33790112 142.21754932 C220.35179393 145.574967 220.35111242 148.93234896 220.35229492 152.28979492 C220.35948044 153.52864944 220.36666595 154.76750397 220.37406921 156.04389954 C220.35590198 162.99927315 219.79879944 169.39292758 218.12182617 176.14526367 C217.0680843 180.79929029 217.22242585 182.81885183 219.12182617 187.14526367 C220.46578041 193.91309604 220.2836478 200.72544279 220.28979492 207.60229492 C220.29312332 208.90043625 220.29645172 210.19857758 220.29988098 211.53605652 C220.30584561 214.27697583 220.30772366 217.01786373 220.30712891 219.75878906 C220.30702748 223.24512678 220.32067148 226.73125996 220.33790112 230.21754932 C220.35179393 233.574967 220.35111242 236.93234896 220.35229492 240.28979492 C220.35948044 241.52864944 220.36666595 242.76750397 220.37406921 244.04389954 C220.32819435 261.60721454 220.32819435 261.60721454 215.99682617 267.64526367 C209.84848756 272.99164507 201.82546171 272.43903876 194.07519531 272.41992188 C192.99608383 272.42503281 191.91697235 272.43014374 190.80516052 272.43540955 C187.25571063 272.44925303 183.70645602 272.44835281 180.15698242 272.44604492 C177.67890857 272.44993447 175.20083539 272.45426967 172.72276306 272.45903015 C167.53553097 272.46648091 162.34836695 272.46620916 157.16113281 272.4609375 C150.5258039 272.45514174 143.89075402 272.47208234 137.25547123 272.49528217 C132.13983033 272.51003851 127.02425636 272.51088865 121.90859795 272.50777245 C119.46266565 272.50828461 117.01672951 272.51350255 114.57081795 272.52358437 C111.14631305 272.53596919 107.72234831 272.52914451 104.29785156 272.51757812 C103.29549469 272.52522186 102.29313782 272.5328656 101.26040649 272.54074097 C94.10851608 272.48755414 87.23512767 271.79156994 81.62182617 267.02026367 C79.59088502 263.12762646 79.31101253 259.4870906 79.12182617 255.14526367 C78.46182617 255.14526367 77.80182617 255.14526367 77.12182617 255.14526367 C77.10764648 255.74209961 77.0934668 256.33893555 77.07885742 256.95385742 C75.99906125 276.59447435 67.2539709 294.95437906 55.12182617 310.14526367 C54.67838867 310.75241211 54.23495117 311.35956055 53.77807617 311.98510742 C38.13856792 332.24971414 10.5132913 341.78509157 -13.87817383 345.14526367 C-53.57872183 349.62449619 -89.92212521 339.998164 -122.70629883 317.29760742 C-127.55988575 312.48766786 -128.32635826 306.93277215 -128.37817383 300.33276367 C-128.40911133 299.02694336 -128.44004883 297.72112305 -128.47192383 296.37573242 C-127.78147172 287.41900463 -121.39121211 279.62776622 -116.31567383 272.58276367 C-115.40192993 271.29728638 -115.40192993 271.29728638 -114.46972656 269.98583984 C-113.21879236 268.22628225 -111.96530186 266.46853915 -110.70922852 264.71264648 C-108.97402671 262.27966219 -107.25463582 259.83652103 -105.54223633 257.38745117 C-89.41005672 234.32255797 -89.41005672 234.32255797 -82.87817383 232.14526367 C-70.73777527 230.72129915 -62.99801178 233.17579877 -52.58618164 239.1706543 C-46.88866117 242.42172658 -41.57186749 245.28192863 -34.87817383 244.14526367 C-29.89340507 240.98185273 -27.67467492 237.81307721 -25.87817383 232.14526367 C-25.47218406 229.20212122 -25.46975456 226.30355277 -25.49290466 223.33589172 C-25.48766897 222.47266444 -25.48243327 221.60943715 -25.47703892 220.72005147 C-25.46311826 217.83991635 -25.47036863 214.96023204 -25.47753906 212.08007812 C-25.47179428 210.0098684 -25.46471057 207.93966203 -25.45639038 205.86946106 C-25.44128952 201.4164094 -25.435502 196.96347753 -25.43691826 192.51040077 C-25.43895436 185.46204105 -25.41936725 178.41384191 -25.39674377 171.36552429 C-25.35577405 157.6683542 -25.33717183 143.97119674 -25.3205719 130.27397919 C-25.29821803 112.85749344 -25.26456419 95.44104496 -25.21337277 78.02461976 C-25.19350821 71.0256864 -25.18387487 64.02683695 -25.18242061 57.0278765 C-25.17965913 52.662432 -25.16880423 48.29703337 -25.15591049 43.9316082 C-25.15165131 41.9161128 -25.15075687 39.90060686 -25.15358543 37.88510895 C-25.18557541 12.12354226 -25.18557541 12.12354226 -21.06567383 5.02026367 C-15.15895459 -0.04263853 -7.47064559 0.02450007 0 0 Z M79.12182617 85.14526367 C79.12182617 89.76526367 79.12182617 94.38526367 79.12182617 99.14526367 C81.30213367 95.87480242 81.81142056 94.02533377 82.12182617 90.14526367 C81.2869623 87.34459303 81.2869623 87.34459303 80.12182617 85.14526367 C79.79182617 85.14526367 79.46182617 85.14526367 79.12182617 85.14526367 Z M79.12182617 173.14526367 C79.12182617 177.76526367 79.12182617 182.38526367 79.12182617 187.14526367 C81.30213367 183.87480242 81.81142056 182.02533377 82.12182617 178.14526367 C81.2869623 175.34459303 81.2869623 175.34459303 80.12182617 173.14526367 C79.79182617 173.14526367 79.46182617 173.14526367 79.12182617 173.14526367 Z " fill="#000000" transform="translate(154.878173828125,26.854736328125)"/>
<path d="M0 0 C0.67676285 -0.00350464 1.3535257 -0.00700928 2.05079651 -0.01062012 C4.28795633 -0.01942247 6.52479985 -0.01359306 8.76196289 -0.00683594 C10.31751059 -0.00818318 11.87305787 -0.01012421 13.42860413 -0.01263428 C16.68942268 -0.01558364 19.95013168 -0.01129456 23.2109375 -0.00195312 C27.38852395 0.00943188 31.56585316 0.00288688 35.74343014 -0.00909805 C38.95620151 -0.01632984 42.16891204 -0.01402251 45.38168526 -0.00884247 C46.92185051 -0.00750913 48.46202131 -0.00914265 50.0021801 -0.01380157 C52.15654979 -0.01888746 54.31050489 -0.0111275 56.46484375 0 C58.30326088 0.00238678 58.30326088 0.00238678 60.17881775 0.00482178 C63.19039736 0.2500972 64.83374292 0.55946922 67.29711914 2.25878906 C69.93951995 6.22239027 69.57769623 9.63620569 69.55781555 14.23684692 C69.5616411 15.16663262 69.56546665 16.09641832 69.56940812 17.05437934 C69.57976321 20.18393338 69.57574103 23.31330478 69.57177734 26.44287109 C69.57612281 28.68171357 69.5813054 30.92055455 69.58726501 33.15939331 C69.60069388 39.25522069 69.60122866 45.35098621 69.59870172 51.4468255 C69.59763319 56.5403016 69.60251309 61.63376513 69.60730714 66.72723854 C69.61905483 79.44603576 69.61816997 92.16478827 69.61175033 104.88358508 C69.60659758 115.89737284 69.617791 126.91107171 69.63684855 137.9248419 C69.65629514 149.25114419 69.66417979 160.5773924 69.6607253 171.90371597 C69.65891825 178.25517934 69.66148931 184.60656159 69.67543983 190.95801163 C69.68809536 196.94490274 69.68600146 202.93161794 69.67302895 208.91850662 C69.67067917 211.10444704 69.67333974 213.29040011 69.68165207 215.47632599 C69.78058293 243.53965643 64.72206593 270.81940335 45.29711914 292.25878906 C44.55977539 293.08894531 43.82243164 293.91910156 43.06274414 294.77441406 C25.15964897 313.84764618 -1.9037049 323.55875856 -27.65600586 324.51269531 C-40.85660744 324.83394889 -53.07650753 324.23680601 -65.70288086 320.25878906 C-66.47148438 320.01741211 -67.24008789 319.77603516 -68.03198242 319.52734375 C-84.80985348 314.09418388 -100.81011939 306.21091602 -114.70288086 295.25878906 C-116.34542755 291.97369569 -116.31040668 288.79938238 -115.70288086 285.25878906 C-114.15261655 282.0060286 -112.09496667 279.2092072 -109.95288086 276.32128906 C-109.36595459 275.49862549 -108.77902832 274.67596191 -108.17431641 273.82836914 C-106.95821007 272.12621198 -105.73442925 270.42951267 -104.50317383 268.73828125 C-102.30115044 265.70549721 -100.15112018 262.63830437 -98.00244141 259.56762695 C-96.05768607 256.79337328 -94.09495354 254.03209851 -92.1315918 251.27099609 C-90.69515835 249.24791263 -89.26496244 247.22053231 -87.83569336 245.19238281 C-86.93743366 243.92272575 -86.03900446 242.65318859 -85.14038086 241.38378906 C-84.734729 240.80653076 -84.32907715 240.22927246 -83.91113281 239.63452148 C-82.86351738 238.16020688 -81.78476463 236.7081438 -80.70288086 235.25878906 C-80.28135742 234.63746094 -79.85983398 234.01613281 -79.42553711 233.37597656 C-76.3960806 231.41129502 -73.13080104 231.70841301 -69.70288086 232.25878906 C-67.18256568 233.42027659 -65.11896287 234.51948725 -62.82788086 236.00878906 C-61.60103954 236.74704221 -60.37186077 237.48142479 -59.14038086 238.21191406 C-58.25479492 238.74268555 -58.25479492 238.74268555 -57.35131836 239.28417969 C-48.49781216 244.51865788 -39.855873 245.40759857 -29.70288086 244.25878906 C-24.65526267 242.65382101 -21.08327159 240.39037773 -17.70288086 236.25878906 C-14.19091489 229.23485712 -13.55482134 223.21069371 -13.56484985 215.45300293 C-13.56061793 214.12269019 -13.56061793 214.12269019 -13.55630052 212.76550245 C-13.5479677 209.79385475 -13.54661742 206.82224436 -13.54516602 203.85058594 C-13.54049696 201.7200561 -13.53535325 199.58952727 -13.5297699 197.45899963 C-13.51849547 192.87115065 -13.51005825 188.28330814 -13.50365067 183.69544983 C-13.4929706 176.44338561 -13.47272704 169.19136803 -13.45053101 161.93933105 C-13.38860266 141.31748585 -13.33455248 120.6956437 -13.30151367 100.07373047 C-13.28318657 88.68445201 -13.2542779 77.29525197 -13.21350896 65.90603113 C-13.19241315 59.87804351 -13.17697798 53.85015479 -13.17470169 47.8221283 C-13.17255917 42.15532048 -13.1567303 36.48871886 -13.13031197 30.8219738 C-13.12310338 28.74065728 -13.12102552 26.65931582 -13.12441444 24.57798958 C-13.12829792 21.7399392 -13.11389102 18.90255102 -13.09487915 16.0645752 C-13.10040885 15.23821422 -13.10593854 14.41185325 -13.1116358 13.56045103 C-13.05851526 8.97680752 -12.68012917 5.97298821 -9.70288086 2.25878906 C-6.05979688 -0.16993359 -4.33954543 0.0056376 0 0 Z " fill="#FDFDFD" transform="translate(153.702880859375,37.7412109375)"/>
<path d="M0 0 C1.33319778 -0.00856522 1.33319778 -0.00856522 2.69332886 -0.01730347 C3.66586609 -0.01842133 4.63840332 -0.01953918 5.64041138 -0.02069092 C7.17983902 -0.02813828 7.17983902 -0.02813828 8.75036621 -0.03573608 C12.15138413 -0.05036228 15.55235543 -0.05716016 18.95339966 -0.06268311 C21.31368003 -0.06843376 23.67396038 -0.0741915 26.03424072 -0.07995605 C30.98564878 -0.09046706 35.9370406 -0.09630922 40.88845825 -0.09979248 C47.23621275 -0.10528028 53.58375308 -0.12931418 59.93144035 -0.15776443 C64.80758291 -0.17637729 69.68367371 -0.18159568 74.55984879 -0.18312836 C76.90024106 -0.18615798 79.24063236 -0.19419689 81.58098984 -0.20731354 C84.85356762 -0.22434693 88.12561989 -0.2225003 91.39822388 -0.21600342 C92.36671265 -0.2252182 93.33520142 -0.23443298 94.33303833 -0.243927 C99.23044709 -0.21343365 102.73014778 -0.14793889 106.64871216 3.14044189 C108.97198096 6.62534509 108.9014533 7.99373945 108.90750122 12.10894775 C108.91380554 13.33709702 108.92010986 14.56524628 108.92660522 15.83061218 C108.92302502 17.17217146 108.91892296 18.51372943 108.91433716 19.85528564 C108.91568461 21.23147144 108.91762581 22.60765677 108.9201355 23.98384094 C108.92308399 26.86803723 108.91879871 29.75210962 108.90945435 32.6362915 C108.89807057 36.32961636 108.90461401 40.02265019 108.91659927 43.71596432 C108.9238345 46.5581531 108.92152214 49.40027318 108.91634369 52.24246407 C108.91501123 53.60399981 108.91664076 54.96554182 108.9213028 56.32707024 C108.92639385 58.23222608 108.91725562 60.13740383 108.90750122 62.0425415 C108.90591003 63.12603378 108.90431885 64.20952606 108.90267944 65.32585144 C108.64355417 68.19760531 108.30732502 69.79616922 106.64871216 72.14044189 C103.70241609 73.93820111 101.48387217 74.39341654 98.05654907 74.40786743 C97.13968826 74.4163974 96.22282745 74.42492737 95.27818298 74.43371582 C94.27961777 74.43280945 93.28105255 74.43190308 92.25222778 74.43096924 C91.19492966 74.43768646 90.13763153 74.44440369 89.04829407 74.45132446 C85.55046909 74.4703355 82.05283559 74.47422995 78.55496216 74.47637939 C76.12645386 74.48280406 73.69794635 74.48953217 71.2694397 74.49655151 C66.17856043 74.50853128 61.08774906 74.5122315 55.99685669 74.51104736 C49.46622379 74.51084389 42.93602466 74.53817294 36.40549469 74.57259178 C31.39041127 74.5948004 26.37543335 74.59888679 21.36030579 74.59782791 C18.95209759 74.60019195 16.54388684 74.60906029 14.13572693 74.62449265 C10.77190495 74.64403431 7.40903301 74.63836107 4.04519653 74.62628174 C3.04663132 74.63752075 2.0480661 74.64875977 1.01924133 74.66033936 C-5.72916718 74.59859362 -5.72916718 74.59859362 -8.93856812 72.2350769 C-11.33384976 68.68360049 -11.48932788 66.58333456 -11.52828979 62.30133057 C-11.54112503 61.07633347 -11.55396027 59.85133636 -11.56718445 58.58921814 C-11.57535217 57.24561975 -11.58279584 55.90201679 -11.58956909 54.55841064 C-11.59364462 53.88246668 -11.59772015 53.20652271 -11.60191917 52.5100956 C-11.62277913 48.9317213 -11.63708057 45.35338533 -11.64645386 41.77496338 C-11.65751261 38.08265764 -11.69190545 34.39095553 -11.73162556 30.69886303 C-11.75779923 27.85664262 -11.76614633 25.01456581 -11.76973534 22.17223549 C-11.7746002 20.81148519 -11.78621156 19.45074126 -11.80477333 18.09010887 C-11.82917346 16.18279967 -11.82577909 14.27519673 -11.82125854 12.36773682 C-11.82712479 11.28344894 -11.83299103 10.19916107 -11.83903503 9.08201599 C-11.23064958 5.41287976 -9.95013958 3.75755827 -7.35128784 1.14044189 C-4.56384873 0.21129552 -2.87956855 0.01108948 0 0 Z " fill="#FCFCFC" transform="translate(255.35128784179688,213.85955810546875)"/>
<path d="M0 0 C1.33319778 -0.00856522 1.33319778 -0.00856522 2.69332886 -0.01730347 C3.66586609 -0.01842133 4.63840332 -0.01953918 5.64041138 -0.02069092 C7.17983902 -0.02813828 7.17983902 -0.02813828 8.75036621 -0.03573608 C12.15138413 -0.05036228 15.55235543 -0.05716016 18.95339966 -0.06268311 C21.31368003 -0.06843376 23.67396038 -0.0741915 26.03424072 -0.07995605 C30.98564878 -0.09046706 35.9370406 -0.09630922 40.88845825 -0.09979248 C47.23621275 -0.10528028 53.58375308 -0.12931418 59.93144035 -0.15776443 C64.80758291 -0.17637729 69.68367371 -0.18159568 74.55984879 -0.18312836 C76.90024106 -0.18615798 79.24063236 -0.19419689 81.58098984 -0.20731354 C84.85356762 -0.22434693 88.12561989 -0.2225003 91.39822388 -0.21600342 C92.36671265 -0.2252182 93.33520142 -0.23443298 94.33303833 -0.243927 C99.23044709 -0.21343365 102.73014778 -0.14793889 106.64871216 3.14044189 C108.97198096 6.62534509 108.9014533 7.99373945 108.90750122 12.10894775 C108.91380554 13.33709702 108.92010986 14.56524628 108.92660522 15.83061218 C108.92302502 17.17217146 108.91892296 18.51372943 108.91433716 19.85528564 C108.91568461 21.23147144 108.91762581 22.60765677 108.9201355 23.98384094 C108.92308399 26.86803723 108.91879871 29.75210962 108.90945435 32.6362915 C108.89807057 36.32961636 108.90461401 40.02265019 108.91659927 43.71596432 C108.9238345 46.5581531 108.92152214 49.40027318 108.91634369 52.24246407 C108.91501123 53.60399981 108.91664076 54.96554182 108.9213028 56.32707024 C108.92639385 58.23222608 108.91725562 60.13740383 108.90750122 62.0425415 C108.90591003 63.12603378 108.90431885 64.20952606 108.90267944 65.32585144 C108.64355417 68.19760531 108.30732502 69.79616922 106.64871216 72.14044189 C103.70241609 73.93820111 101.48387217 74.39341654 98.05654907 74.40786743 C97.13968826 74.4163974 96.22282745 74.42492737 95.27818298 74.43371582 C94.27961777 74.43280945 93.28105255 74.43190308 92.25222778 74.43096924 C91.19492966 74.43768646 90.13763153 74.44440369 89.04829407 74.45132446 C85.55046909 74.4703355 82.05283559 74.47422995 78.55496216 74.47637939 C76.12645386 74.48280406 73.69794635 74.48953217 71.2694397 74.49655151 C66.17856043 74.50853128 61.08774906 74.5122315 55.99685669 74.51104736 C49.46622379 74.51084389 42.93602466 74.53817294 36.40549469 74.57259178 C31.39041127 74.5948004 26.37543335 74.59888679 21.36030579 74.59782791 C18.95209759 74.60019195 16.54388684 74.60906029 14.13572693 74.62449265 C10.77190495 74.64403431 7.40903301 74.63836107 4.04519653 74.62628174 C3.04663132 74.63752075 2.0480661 74.64875977 1.01924133 74.66033936 C-5.72916718 74.59859362 -5.72916718 74.59859362 -8.93856812 72.2350769 C-11.33384976 68.68360049 -11.48932788 66.58333456 -11.52828979 62.30133057 C-11.54112503 61.07633347 -11.55396027 59.85133636 -11.56718445 58.58921814 C-11.57535217 57.24561975 -11.58279584 55.90201679 -11.58956909 54.55841064 C-11.59364462 53.88246668 -11.59772015 53.20652271 -11.60191917 52.5100956 C-11.62277913 48.9317213 -11.63708057 45.35338533 -11.64645386 41.77496338 C-11.65751261 38.08265764 -11.69190545 34.39095553 -11.73162556 30.69886303 C-11.75779923 27.85664262 -11.76614633 25.01456581 -11.76973534 22.17223549 C-11.7746002 20.81148519 -11.78621156 19.45074126 -11.80477333 18.09010887 C-11.82917346 16.18279967 -11.82577909 14.27519673 -11.82125854 12.36773682 C-11.82712479 11.28344894 -11.83299103 10.19916107 -11.83903503 9.08201599 C-11.23064958 5.41287976 -9.95013958 3.75755827 -7.35128784 1.14044189 C-4.56384873 0.21129552 -2.87956855 0.01108948 0 0 Z " fill="#FCFCFC" transform="translate(255.35128784179688,125.85955810546875)"/>
<path d="M0 0 C1.33319778 -0.00856522 1.33319778 -0.00856522 2.69332886 -0.01730347 C3.66586609 -0.01842133 4.63840332 -0.01953918 5.64041138 -0.02069092 C7.17983902 -0.02813828 7.17983902 -0.02813828 8.75036621 -0.03573608 C12.15138413 -0.05036228 15.55235543 -0.05716016 18.95339966 -0.06268311 C21.31368003 -0.06843376 23.67396038 -0.0741915 26.03424072 -0.07995605 C30.98564878 -0.09046706 35.9370406 -0.09630922 40.88845825 -0.09979248 C47.23621275 -0.10528028 53.58375308 -0.12931418 59.93144035 -0.15776443 C64.80758291 -0.17637729 69.68367371 -0.18159568 74.55984879 -0.18312836 C76.90024106 -0.18615798 79.24063236 -0.19419689 81.58098984 -0.20731354 C84.85356762 -0.22434693 88.12561989 -0.2225003 91.39822388 -0.21600342 C92.36671265 -0.2252182 93.33520142 -0.23443298 94.33303833 -0.243927 C99.23044709 -0.21343365 102.73014778 -0.14793889 106.64871216 3.14044189 C108.97198096 6.62534509 108.9014533 7.99373945 108.90750122 12.10894775 C108.91380554 13.33709702 108.92010986 14.56524628 108.92660522 15.83061218 C108.92302502 17.17217146 108.91892296 18.51372943 108.91433716 19.85528564 C108.91568461 21.23147144 108.91762581 22.60765677 108.9201355 23.98384094 C108.92308399 26.86803723 108.91879871 29.75210962 108.90945435 32.6362915 C108.89807057 36.32961636 108.90461401 40.02265019 108.91659927 43.71596432 C108.9238345 46.5581531 108.92152214 49.40027318 108.91634369 52.24246407 C108.91501123 53.60399981 108.91664076 54.96554182 108.9213028 56.32707024 C108.92639385 58.23222608 108.91725562 60.13740383 108.90750122 62.0425415 C108.90591003 63.12603378 108.90431885 64.20952606 108.90267944 65.32585144 C108.64355417 68.19760531 108.30732502 69.79616922 106.64871216 72.14044189 C103.70241609 73.93820111 101.48387217 74.39341654 98.05654907 74.40786743 C97.13968826 74.4163974 96.22282745 74.42492737 95.27818298 74.43371582 C94.27961777 74.43280945 93.28105255 74.43190308 92.25222778 74.43096924 C91.19492966 74.43768646 90.13763153 74.44440369 89.04829407 74.45132446 C85.55046909 74.4703355 82.05283559 74.47422995 78.55496216 74.47637939 C76.12645386 74.48280406 73.69794635 74.48953217 71.2694397 74.49655151 C66.17856043 74.50853128 61.08774906 74.5122315 55.99685669 74.51104736 C49.46622379 74.51084389 42.93602466 74.53817294 36.40549469 74.57259178 C31.39041127 74.5948004 26.37543335 74.59888679 21.36030579 74.59782791 C18.95209759 74.60019195 16.54388684 74.60906029 14.13572693 74.62449265 C10.77190495 74.64403431 7.40903301 74.63836107 4.04519653 74.62628174 C3.04663132 74.63752075 2.0480661 74.64875977 1.01924133 74.66033936 C-5.72916718 74.59859362 -5.72916718 74.59859362 -8.93856812 72.2350769 C-11.33384976 68.68360049 -11.48932788 66.58333456 -11.52828979 62.30133057 C-11.54112503 61.07633347 -11.55396027 59.85133636 -11.56718445 58.58921814 C-11.57535217 57.24561975 -11.58279584 55.90201679 -11.58956909 54.55841064 C-11.59364462 53.88246668 -11.59772015 53.20652271 -11.60191917 52.5100956 C-11.62277913 48.9317213 -11.63708057 45.35338533 -11.64645386 41.77496338 C-11.65751261 38.08265764 -11.69190545 34.39095553 -11.73162556 30.69886303 C-11.75779923 27.85664262 -11.76614633 25.01456581 -11.76973534 22.17223549 C-11.7746002 20.81148519 -11.78621156 19.45074126 -11.80477333 18.09010887 C-11.82917346 16.18279967 -11.82577909 14.27519673 -11.82125854 12.36773682 C-11.82712479 11.28344894 -11.83299103 10.19916107 -11.83903503 9.08201599 C-11.23064958 5.41287976 -9.95013958 3.75755827 -7.35128784 1.14044189 C-4.56384873 0.21129552 -2.87956855 0.01108948 0 0 Z " fill="#FCFCFC" transform="translate(255.35128784179688,37.85955810546875)"/>
</svg>
